HIERARCHY
ROOT Hips
{
	OFFSET 0.000000 0.000000 0.000000
	CHANNELS 6 Xposition Yposition Zposition Xrotation Yrotation Zrotation
	JOINT LeftUpLeg_virtual
	{
		OFFSET 0.000000 0.000000 0.000000
		CHANNELS 3 Xrotation Yrotation Zrotation
		JOINT LeftUpLeg
		{
			OFFSET 15.427100 -6.655098 0.678600
			CHANNELS 3 Xrotation Yrotation Zrotation
			JOINT LeftLeg
			{
				OFFSET 4.081073 -39.591068 13.024000
				CHANNELS 3 Xrotation Yrotation Zrotation
				JOINT LeftFoot
				{
					OFFSET -4.081074 -37.707932 -15.979700
					CHANNELS 3 Xrotation Yrotation Zrotation
					JOINT LeftToeBase
					{
						OFFSET 5.346399 -15.068900 20.645000
						CHANNELS 3 Xrotation Yrotation Zrotation
						JOINT LeftToe_End
						{
							OFFSET 2.754700 0.931300 11.300900
							CHANNELS 3 Xrotation Yrotation Zrotation
							End Site
							{
								OFFSET 0 0 0
							}
						}
					}
				}
			}
		}
	}
	JOINT RightUpLeg_virtual
	{
		OFFSET 0.000000 0.000000 0.000000
		CHANNELS 3 Xrotation Yrotation Zrotation
		JOINT RightUpLeg
		{
			OFFSET -15.569500 -6.655098 0.678600
			CHANNELS 3 Xrotation Yrotation Zrotation
			JOINT RightLeg
			{
				OFFSET -4.081825 -39.591045 13.023800
				CHANNELS 3 Xrotation Yrotation Zrotation
				JOINT RightFoot
				{
					OFFSET 4.081824 -37.707954 -15.979600
					CHANNELS 3 Xrotation Yrotation Zrotation
					JOINT RightToeBase
					{
						OFFSET -5.346400 -15.068900 20.645000
						CHANNELS 3 Xrotation Yrotation Zrotation
						JOINT RightToe_End
						{
							OFFSET -2.754700 0.931300 11.300900
							CHANNELS 3 Xrotation Yrotation Zrotation
							End Site
							{
								OFFSET 0 0 0
							}
						}
					}
				}
			}
		}
	}
	JOINT Spine_virtual
	{
		OFFSET 0.000000 0.000000 0.000000
		CHANNELS 3 Xrotation Yrotation Zrotation
		JOINT Spine
		{
			OFFSET -0.279200 12.230698 -2.892100
			CHANNELS 3 Xrotation Yrotation Zrotation
			JOINT Spine1
			{
				OFFSET -0.232667 10.192268 -1.242267
				CHANNELS 3 Xrotation Yrotation Zrotation
				JOINT Spine1_split
				{
					OFFSET -0.232667 10.192268 -1.242267
					CHANNELS 3 Xrotation Yrotation Zrotation
					JOINT Spine2
					{
						OFFSET -0.232667 10.192268 -1.242267
						CHANNELS 3 Xrotation Yrotation Zrotation
						JOINT Neck_virtual
						{
							OFFSET 0.000000 0.000000 0.000000
							CHANNELS 3 Xrotation Yrotation Zrotation
							JOINT Neck
							{
								OFFSET -0.418800 17.814194 8.416900
								CHANNELS 3 Xrotation Yrotation Zrotation
								JOINT Head
								{
									OFFSET 0.000000 7.031097 3.806800
									CHANNELS 3 Xrotation Yrotation Zrotation
									JOINT HeadTop_End
									{
										OFFSET 0.000000 24.646606 12.978600
										CHANNELS 3 Xrotation Yrotation Zrotation
										End Site
										{
											OFFSET 0 0 0
										}
									}
								}
							}
						}
						JOINT LeftShoulder_virtual
						{
							OFFSET 0.000000 0.000000 0.000000
							CHANNELS 3 Xrotation Yrotation Zrotation
							JOINT LeftShoulder
							{
								OFFSET 8.476499 7.247704 -3.868750
								CHANNELS 3 Xrotation Yrotation Zrotation
								JOINT LeftShoulder_split
								{
									OFFSET 8.476499 7.247704 -3.868750
									CHANNELS 3 Xrotation Yrotation Zrotation
									JOINT LeftArm
									{
										OFFSET 9.308998 -2.777710 0.208600
										CHANNELS 3 Xrotation Yrotation Zrotation
										JOINT LeftForeArm
										{
											OFFSET 29.972298 0.000000 0.000000
											CHANNELS 3 Xrotation Yrotation Zrotation
											JOINT LeftHand
											{
												OFFSET 26.026505 0.000000 0.000000
												CHANNELS 3 Xrotation Yrotation Zrotation
												End Site
												{
													OFFSET 0 0 0
												}
											}
										}
									}
								}
							}
						}
						JOINT RightShoulder_virtual
						{
							OFFSET 0.000000 0.000000 0.000000
							CHANNELS 3 Xrotation Yrotation Zrotation
							JOINT RightShoulder
							{
								OFFSET -7.570500 7.247704 -3.868750
								CHANNELS 3 Xrotation Yrotation Zrotation
								JOINT RightShoulder_split
								{
									OFFSET -7.570500 7.247704 -3.868750
									CHANNELS 3 Xrotation Yrotation Zrotation
									JOINT RightArm
									{
										OFFSET -9.308998 -2.777710 0.208500
										CHANNELS 3 Xrotation Yrotation Zrotation
										JOINT RightForeArm
										{
											OFFSET -29.972300 0.000000 0.000000
											CHANNELS 3 Xrotation Yrotation Zrotation
											JOINT RightHand
											{
												OFFSET -26.026505 0.000000 0.000000
												CHANNELS 3 Xrotation Yrotation Zrotation
												End Site
												{
													OFFSET 0 0 0
												}
											}
										}
									}
								}
							}
						}
					}
				}
			}
		}
	}
}
MOTION
Frames: 9
Frame Time: 0.03333333
1.535654 88.593597 4.586658 0.000000 0.000000 0.000000 23.450206 12.586618 1.588923 -36.502669 13.492890 18.759202 29.163409 4.491870 -6.289316 -1.500442 26.804015 -15.619560 -10.046063 -1.218103 -0.580158 0.000000 0.000000 0.000000 24.944845 11.183798 1.838645 -60.034139 -9.744913 -11.530520 35.468838 5.697471 -3.263562 0.293356 -8.568937 2.589583 2.510292 0.036159 -0.134900 0.000000 0.000000 0.000000 21.931370 12.166529 3.199932 12.079322 -0.763186 1.718248 8.783178 2.183812 -2.992849 0.368783 -0.794949 0.529858 0.000000 0.000000 0.000000 9.557763 2.139289 -3.317685 -7.735420 5.384772 -0.169488 -23.098609 -1.095615 -9.817419 0.000000 0.000000 0.000000 10.580216 1.999060 -2.786547 1.510812 4.243262 -8.712358 -0.167870 -2.663216 -1.355055 -28.723654 -0.989262 -58.315254 2.181617 -41.653902 0.088210 0.000000 0.000000 0.000000 9.346439 1.614851 -3.086801 4.338867 23.275435 3.634126 -0.090365 5.063343 -0.465136 -20.767298 -13.945160 62.880327 -0.198635 36.382051 0.974479 0.000000 0.000000 0.000000 
1.688742 89.852219 6.816055 0.000000 0.000000 0.000000 22.796936 12.116539 1.832075 -37.337847 12.339968 17.564622 26.571097 5.929826 -6.122738 -1.006430 27.034128 -14.595098 -7.994338 -1.023743 -1.176792 0.000000 0.000000 0.000000 25.237346 10.325404 2.048065 -57.601594 -9.926503 -11.956291 33.666651 5.412871 -3.480133 0.932364 -8.997571 2.419866 0.933485 0.008832 0.111780 0.000000 0.000000 0.000000 22.599194 11.759106 2.996505 11.546514 -0.116890 2.178085 8.724890 2.414757 -2.864818 0.248035 0.245915 1.043628 0.000000 0.000000 0.000000 9.481038 2.296597 -3.250789 -7.430578 4.865294 -0.327189 -23.276801 -1.256315 -9.967549 0.000000 0.000000 0.000000 10.483093 2.160516 -2.710001 1.558059 4.924517 -8.213985 -1.218638 -0.892084 -1.379204 -27.157826 1.271819 -57.071787 1.523715 -40.249755 -0.228397 0.000000 0.000000 0.000000 9.405422 1.832302 -3.023305 4.566702 23.014403 3.524115 -0.983273 4.818789 -1.572582 -21.772580 -16.203751 62.032270 -0.264364 36.219421 1.067040 0.000000 0.000000 0.000000 
1.982187 91.233650 9.707726 0.000000 0.000000 0.000000 21.854654 13.582411 2.147305 -39.314791 10.583790 15.241878 24.085202 6.857143 -5.827451 2.028287 26.452875 -15.943352 -3.499460 -0.900678 -1.837503 0.000000 0.000000 0.000000 24.716032 11.001744 2.348839 -53.322819 -11.050352 -13.363761 31.761814 5.088689 -3.558473 -0.162196 -9.704782 1.917358 -1.232874 0.085775 0.337219 0.000000 0.000000 0.000000 23.192725 11.953238 2.998907 11.212991 1.022248 2.808353 8.695602 2.947361 -2.407720 0.307469 0.408682 1.014465 0.000000 0.000000 0.000000 9.475685 2.763945 -2.776452 -7.282093 4.115541 -0.951542 -24.210881 -1.548265 -10.692630 0.000000 0.000000 0.000000 10.265302 2.641482 -2.322645 1.540195 4.975342 -8.021268 -1.653058 0.380095 -1.155925 -23.689548 4.218341 -54.957112 0.874132 -39.753118 -0.510842 0.000000 0.000000 0.000000 9.448522 2.359287 -2.600946 4.868308 22.523100 2.825806 -1.668639 4.595058 -2.262996 -24.355121 -18.588758 59.808763 -0.579444 37.100741 1.316708 0.000000 0.000000 0.000000 
2.381991 91.856598 13.054123 0.000000 0.000000 0.000000 20.672375 15.851291 2.591629 -41.847060 8.881742 12.213048 22.688649 7.169171 -5.408228 6.181280 24.984028 -18.563081 -0.493774 -0.965028 -1.539639 0.000000 0.000000 0.000000 23.480382 12.755762 2.748276 -48.465725 -13.091740 -15.295591 30.791463 4.948763 -3.298154 -2.681208 -10.522004 1.573255 -3.233665 0.274479 0.428855 0.000000 0.000000 0.000000 23.111714 13.099453 3.126008 11.173776 2.472469 3.428834 8.670390 3.672388 -1.734408 0.430167 -0.026830 0.788278 0.000000 0.000000 0.000000 9.553275 3.452324 -1.987227 -7.389644 3.207288 -1.834032 -25.660952 -2.130035 -11.788037 0.000000 0.000000 0.000000 9.933196 3.373817 -1.681973 1.521852 4.313615 -7.965360 -1.390222 0.688633 -0.825436 -19.359107 6.804391 -53.040223 0.461879 -40.281939 -0.666632 0.000000 0.000000 0.000000 9.473340 3.117856 -1.904774 5.133482 22.064014 1.716894 -2.353465 4.446479 -2.498281 -28.122090 -19.856133 56.484394 -0.950874 38.524439 1.552865 0.000000 0.000000 0.000000 
2.712395 91.255417 16.671553 0.000000 0.000000 0.000000 19.316031 18.075247 3.133774 -44.165482 8.107737 9.102019 22.605800 7.486377 -4.951693 8.092021 23.370310 -19.489342 -1.057745 -1.131639 -0.194499 0.000000 0.000000 0.000000 22.118821 14.811958 3.151321 -43.930749 -15.889115 -16.873048 31.174168 5.094327 -2.844385 -6.924057 -11.488700 1.623816 -4.737214 0.528116 0.247988 0.000000 0.000000 0.000000 22.212028 15.005337 3.216361 11.372801 4.106655 3.977673 8.623399 4.483142 -0.934847 0.249985 0.001184 0.374027 0.000000 0.000000 0.000000 9.639298 4.233729 -1.038350 -7.775713 2.161604 -2.734556 -27.234800 -3.132209 -12.902924 0.000000 0.000000 0.000000 9.531050 4.235139 -0.877918 1.539855 3.197083 -7.927508 -1.069737 0.391877 -0.416368 -14.898823 8.435197 -51.953629 0.429482 -41.521932 -0.596056 0.000000 0.000000 0.000000 9.439201 3.992634 -1.052843 5.254873 21.834153 0.572809 -2.702474 4.313772 -2.653257 -32.502589 -19.024647 52.584906 -1.164649 40.042291 1.591553 0.000000 0.000000 0.000000 
3.008418 89.398659 20.568317 0.000000 0.000000 0.000000 17.892674 19.776335 3.563865 -45.774589 8.677921 6.823247 24.017761 8.031658 -4.627986 6.495521 22.253448 -17.707877 -3.361072 -1.333035 0.899183 0.000000 0.000000 0.000000 20.749193 17.073916 3.222431 -39.673687 -18.963532 -17.400827 32.807376 5.476609 -2.567981 -13.230018 -12.691493 1.726122 -5.102146 0.799001 -0.196131 0.000000 0.000000 0.000000 20.535486 16.842516 3.167303 11.635881 5.792495 4.400549 8.468642 5.263777 -0.135992 0.688667 0.353665 -0.058185 0.000000 0.000000 0.000000 9.592679 4.964502 -0.130424 -8.392575 1.084744 -3.442731 -28.586599 -4.655261 -13.607288 0.000000 0.000000 0.000000 9.061471 5.080471 -0.031623 1.593543 1.831844 -7.633215 -0.868414 -0.333049 -0.027950 -10.556448 8.739213 -51.603776 0.670201 -43.312279 -0.314433 0.000000 0.000000 0.000000 9.327773 4.843241 -0.220284 5.186669 21.878455 -0.372354 -2.674221 4.427130 -2.819550 -36.365194 -15.536211 49.129803 -1.015623 41.445902 1.281034 0.000000 0.000000 0.000000 
3.102001 87.006569 24.452539 0.000000 0.000000 0.000000 16.491367 20.939212 3.601977 -46.769744 9.756826 5.677012 26.588238 8.689274 -4.460157 2.948861 21.482424 -14.419043 -4.704277 -1.329680 0.864931 0.000000 0.000000 0.000000 19.501715 19.343147 2.773821 -34.915159 -21.742143 -16.503537 35.294586 5.778944 -2.536126 -20.761945 -14.135204 1.245949 -3.729887 1.027894 -0.731805 0.000000 0.000000 0.000000 18.423908 18.395607 2.783220 11.672559 7.361325 4.698426 8.169777 5.906488 0.516811 1.304897 1.487514 -0.406514 0.000000 0.000000 0.000000 9.309828 5.541096 0.573319 -8.932859 0.023492 -3.803670 -29.368912 -6.698556 -13.538982 0.000000 0.000000 0.000000 8.510046 5.773357 0.655232 1.683866 0.589030 -7.015718 -0.600784 -1.453759 0.344231 -6.131223 8.165542 -51.379975 1.040661 -45.335200 0.070790 0.000000 0.000000 0.000000 9.063997 5.514765 0.416868 4.932170 21.834892 -1.072229 -2.619341 4.618332 -2.854160 -38.810620 -9.719474 46.564736 -0.505302 43.206011 0.631121 0.000000 0.000000 0.000000 
3.008699 85.022644 27.624043 0.000000 0.000000 0.000000 15.237387 21.771397 3.084825 -46.861047 10.490380 5.813953 29.265745 9.015541 -4.496908 0.084707 20.574340 -11.320567 -5.197845 -1.036965 0.290208 0.000000 0.000000 0.000000 18.195001 21.349614 1.985262 -29.609184 -23.606749 -14.234784 37.800326 5.884554 -2.682695 -27.406236 -15.548219 0.503641 -1.470015 1.117823 -1.127644 0.000000 0.000000 0.000000 16.350549 19.721191 2.105342 11.242929 8.588609 4.849304 7.708609 6.283449 0.876972 1.324637 2.933213 -0.258877 0.000000 0.000000 0.000000 8.731377 5.872168 0.939759 -9.086692 -0.931400 -3.854329 -29.395662 -9.095810 -12.443731 0.000000 0.000000 0.000000 7.827813 6.202482 1.020039 1.769490 -0.325038 -6.127369 -0.569979 -2.714128 0.490795 -1.414764 7.748507 -50.454922 1.214842 -47.741653 0.424447 0.000000 0.000000 0.000000 8.517378 5.900038 0.764826 4.535635 21.363440 -1.570179 -2.289247 4.782600 -2.726573 -39.430610 -2.805417 44.934599 0.229874 45.924833 -0.240773 0.000000 0.000000 0.000000 
2.987687 84.125862 30.443220 0.000000 0.000000 0.000000 14.182961 22.255362 2.204556 -45.607284 10.540105 6.978110 30.978193 8.824561 -4.757998 -0.322388 19.402829 -9.566776 -5.987336 -0.617310 0.067964 0.000000 0.000000 0.000000 16.643252 22.635749 1.183079 -24.401351 -24.312369 -11.443732 39.376187 6.051898 -2.807185 -30.379213 -16.654271 0.737862 -0.530978 1.086451 -1.225417 0.000000 0.000000 0.000000 14.473620 20.961637 1.388505 10.299053 9.266329 4.757041 7.096930 6.305425 0.878471 1.592680 3.581379 0.182142 0.000000 0.000000 0.000000 7.881076 5.926943 0.917846 -8.728032 -1.698078 -3.739572 -28.571950 -11.562510 -10.285014 0.000000 0.000000 0.000000 7.042729 6.297313 0.995011 1.798679 -0.938666 -5.032384 -0.996133 -3.842452 0.007759 3.138027 8.346119 -48.110637 0.899998 -50.672012 0.539886 0.000000 0.000000 0.000000 7.677104 5.967045 0.774658 4.086067 20.388176 -1.960463 -1.914929 4.798921 -2.517042 -38.100243 3.742026 43.913106 1.028478 49.888009 -1.144851 0.000000 0.000000 0.000000 
